<svg width="8" height="8" viewBox="0 0 8 8" fill="none" xmlns="http://www.w3.org/2000/svg">
<path d="M3.80051 0.605637C3.81936 0.359319 4.18049 0.359319 4.19934 0.605637L4.3137 2.09993C4.32812 2.28827 4.57153 2.35349 4.67819 2.19759L5.52437 0.960678C5.66385 0.756786 5.9766 0.937351 5.86977 1.16009L5.22166 2.51136C5.13997 2.68168 5.31817 2.85988 5.48849 2.77819L6.83976 2.13008C7.0625 2.02325 7.24307 2.336 7.03917 2.47548L5.80226 3.32166C5.64636 3.42832 5.71158 3.67174 5.89992 3.68615L7.39421 3.80051C7.64053 3.81936 7.64053 4.18049 7.39421 4.19934L5.89993 4.3137C5.71158 4.32812 5.64636 4.57153 5.80226 4.67819L7.03917 5.52437C7.24307 5.66385 7.0625 5.9766 6.83976 5.86977L5.48849 5.22166C5.31817 5.13997 5.13997 5.31817 5.22166 5.48849L5.86977 6.83976C5.9766 7.0625 5.66385 7.24307 5.52437 7.03917L4.67819 5.80226C4.57153 5.64636 4.32812 5.71158 4.3137 5.89992L4.19934 7.39421C4.18049 7.64053 3.81936 7.64053 3.80051 7.39421L3.68615 5.89993C3.67174 5.71158 3.42832 5.64636 3.32166 5.80226L2.47548 7.03917C2.336 7.24307 2.02325 7.0625 2.13008 6.83976L2.77819 5.48849C2.85988 5.31817 2.68168 5.13997 2.51137 5.22166L1.16009 5.86977C0.937352 5.9766 0.756785 5.66385 0.960677 5.52437L2.19759 4.67819C2.35349 4.57153 2.28827 4.32812 2.09993 4.3137L0.605637 4.19934C0.359319 4.18049 0.359319 3.81936 0.605637 3.80051L2.09993 3.68615C2.28827 3.67174 2.35349 3.42832 2.19759 3.32166L0.960678 2.47548C0.756786 2.336 0.937351 2.02325 1.16009 2.13008L2.51136 2.77819C2.68168 2.85988 2.85988 2.68168 2.77819 2.51137L2.13008 1.16009C2.02325 0.937352 2.336 0.756785 2.47548 0.960677L3.32166 2.19759C3.42832 2.35349 3.67174 2.28827 3.68615 2.09993L3.80051 0.605637Z" fill="#BCBCBC" fill-opacity="0.6"/>
</svg>
