<svg width="46" height="42" viewBox="0 0 46 42" fill="none" xmlns="http://www.w3.org/2000/svg">
<path d="M30.9224 21.2009C25.1291 21.2009 24.618 24.7791 24.618 27.335C24.618 21.5417 21.5509 21.2009 17.9727 21.2009C24.618 21.2009 24.618 17.2819 24.618 14.8964C24.618 20.3489 27.8554 21.2009 30.9224 21.2009Z" fill="#3E5CE3" stroke="#3E5CE3"/>
<rect y="21.6973" width="0.999999" height="18" transform="rotate(-90 0 21.6973)" fill="#3E5CE3"/>
<path d="M9.93715 16.855C10.9514 13.0696 13.2829 9.77025 16.5123 7.55014C19.7417 5.33003 23.6571 4.33482 27.5547 4.74346C31.4522 5.15209 35.0762 6.93776 37.7749 9.7794C40.4736 12.621 42.07 16.3322 42.2771 20.2456C42.4842 24.1591 41.2884 28.018 38.9047 31.1287C36.5211 34.2393 33.1059 36.3975 29.2732 37.2152C25.4406 38.033 21.4419 37.4566 17.9962 35.5898C14.5505 33.7229 11.8839 30.6881 10.4757 27.0309" stroke="#E4E8F2" stroke-width="1.5" stroke-linecap="round"/>
</svg>
