<svg width="500" height="300" fill="none" xmlns="http://www.w3.org/2000/svg"><path d="M117.993 107.527c.198.456 1.062.183.963-.306-.139-.009-.81-.438-.963.306zM74.678 78.304c.493 0 .493-.763 0-.763-.491 0-.491.763 0 .763z" fill="#D0D0D0"/><path d="M230.812 121.514l-.006.004c.003.003.006.003.006-.004z" fill="#6A737D"/><path d="M249.24 106.321l-18.429 15.192c7.455-2.673 17.586-11.394 18.429-15.192z" fill="#959DA5"/><path d="M227.435 102.244c-3.315 3.452 3.136 19.116 3.37 19.274l.005-.003 18.429-15.195s-19.131-12.515-21.804-4.076" fill="#6A737D"/><path d="M263.292 157.544l17.385-16.377c-7.263 3.158-16.794 12.531-17.385 16.377z" fill="#E1E4E8"/><path d="M280.685 141.161a.035.035 0 01-.009.006l-17.385 16.377s19.92 11.226 22.026 2.628c3.073-3.657-4.356-18.792-4.632-19.011" fill="#6A737D"/><path d="M280.677 141.167l.009-.006c-.006-.003-.009-.003-.009.006z" fill="#6A737D"/><path d="M220.296 117.479l26.22-24.585-43.593-58.659-2.361-1.17-37.107 33.333 54.744 51.195 2.097-.114z" fill="#B6BFC4"/><path d="M164.822 67.242l38.103-33.006 43.59 58.66-26.22 24.584-55.473-50.238z" fill="#444D56"/><path d="M237.606 110.745L169.5 34.326l6.171-5.5 64.32 79.795-2.385 2.124zm-10.494 12.583l-75.657-70.251 5.616-3.852 72.216 71.763-2.175 2.34zm21.209-22.956l-59.169-76.418 2.526-1.957 57.51 76.632-.867 1.743z" fill="#586069"/><path d="M164.286 70.203l42.633-35.202 1.182 1.377-42.795 34.272-1.02-.447zm82.017 6.471l-35.142 31.479 1.716.679 34.059-31.51-.633-.648zm-18.118-16.762l-38.388 31.527 1.869.678 37.209-31.557-.69-.648z" fill="#444D56"/><path d="M231.296 115.931c.209.417.493.793.838 1.107a3.66 3.66 0 01.318-.903 20.764 20.764 0 012.04-3.348c-2.967-3.756-4.917-8.364-5.616-13.15-1.648 6.553.717 12.883 2.42 16.294zm18.373-12.846a3.81 3.81 0 00-1.716-2.34c-3.453-2.106-9.372-5.277-13.743-5.31 4.461 2.034 8.664 4.683 12.438 8.02 1.01-.324 2.028-.483 3.021-.37z" fill="#2F363D"/><path d="M229.025 99.076c-.054.186-.102.375-.15.561.699 4.785 2.649 9.393 5.616 13.149 1.701-2.277 3.795-4.158 6.195-6.057 1.755-1.185 3.84-2.595 5.961-3.276-3.774-3.333-7.977-5.982-12.438-8.02-2.448-.017-4.413.952-5.184 3.643" fill="#24292E"/><path d="M232.133 117.037c6.133-.007 18.172-13.788 17.535-13.95-5.213-1.339-16.455 9.09-17.535 13.95z" fill="#2F363D"/><path d="M310.9 227.349l34.944-38.25-55.584-47.055h-2.098l-26.967 22.824L309.226 228l1.674-.651z" fill="#B6BFC4"/><path d="M290.259 142.046l-27.239 23.667 47.88 61.638 34.943-38.25-55.584-47.055z" fill="#24292E"/><path d="M290.259 142.046l-27.239 23.667 47.88 61.638 34.943-38.25-55.584-47.055z" fill="#2F363D"/><path d="M270.059 151.626l69.754 74.22-5.836 5.952-65.958-78.111 2.04-2.061zm8.831-11.991l77.673 65.993-5.412 4.168-74.097-67.924 1.836-2.237zm-17.971 22.014l59.724 75.371-2.403 2.104-58.038-75.829.717-1.646z" fill="#444D56"/><path d="M344.881 185.095l-42.705 40.089-1.239-1.443 42.348-40.351 1.596 1.705zm-81.51-1.187l36.462-36.183-1.203-1.014-35.844 36.594.585.603zm17.18 15.982l39.534-36.411-1.389-.693-38.815 36.47.67.634z" fill="#444D56"/><path d="M270.722 156.144c-1.095.519-2.205 1.02-3.312 1.527a5.534 5.534 0 002.73 2.586c4.401 1.932 10.683 4.115 14.721 3.078-5.476-1.293-10.707-3.273-14.139-7.191" fill="#24292E"/><path d="M282.971 146.097c-2.679 5.076-7.317 7.726-12.249 10.048 3.432 3.915 8.663 5.895 14.139 7.191 1.83-.471 3.2-1.605 3.722-3.729.043-.168.079-.334.115-.498a37.482 37.482 0 00-5.427-13.62c-.096.207-.196.414-.3.608" fill="#444D56"/><path d="M285.948 144.531a5.556 5.556 0 00-1.882-2.001c-.069.996-.368 2.022-.797 2.958a37.42 37.42 0 015.429 13.619c1.228-5.769-.846-11.145-2.75-14.576z" fill="#24292E"/><path d="M284.067 142.53c-3.121-2.089-19.588 12.791-16.66 15.141 4.338-1.99 16.066-6.75 16.66-15.141z" fill="#2F363D"/><path d="M246.594 92.887l-3.894-5.355h-3.609s-.819.357-.162 1.674c.66 1.314 2.703 4.428 5.46 5.727l2.205-2.046zm99.561 96.221l-4.332 4.893s-6.998-2.601-7.68-7.434c-.681-4.827 2.415-3.093 2.415-3.093l1.857-.621 7.74 6.255z" fill="#000"/><path d="M311.918 136.749c.061.117.124.228.196.339.758 1.119 2.19 1.599 3.255.909l6.557-4.215c.025-.015.046-.027.064-.042 1.77-1.176 2.346-2.985 1.617-4.365-2.754 2.403-7.002 2.961-9.972 5.436a7.301 7.301 0 00-1.717 1.938" fill="#586069"/><path d="M324.707 123.097l-9.202 12.92s5.791 4.929 9.802-.455c4.011-5.385 6.861-8.841 6.861-8.841l-.018-.1-4.362-.716-3.081-2.808z" fill="#FFD33D"/><path d="M322.521 133.081l1.777 1.506 1.394-1.38-1.787-1.401-1.384 1.275zm3.171.125l1.965 1.538 1.316-1.409-1.967-1.428-1.314 1.299z" fill="#6A6300"/><path d="M322.275 130.53l1.629 1.278 1.305-1.206-1.641-1.191-1.293 1.119z" fill="#6A6300"/><path d="M326.813 120.138l-2.106 2.958 3.082 2.808 4.361.717c-.095-.645-.681-4.293-1.476-5.337l-3.861-1.146z" fill="#923D6E"/><path d="M322.375 128.143c-1.887-1.089-4.524-.441-5.937 1.089l-4.251 4.587a.12.12 0 01-.021.024c-.66.738-.741 1.923-.246 2.907a7.295 7.295 0 011.716-1.938c2.97-2.475 7.215-3.035 9.969-5.436-.255-.477-.663-.903-1.23-1.233z" fill="#959DA5"/><path d="M238.26 113.069l.478 1.476a.596.596 0 00.116.216c.382.453 1.384.294 2.572-.318a45.876 45.876 0 01-2.406-3.312c-.603.786-.9 1.502-.76 1.938zm7.272-2.295c.498-.803.66-1.494.354-1.86 0 0 0-.003-.003-.003a.594.594 0 00-.192-.153l-1.38-.726c-.297-.153-.78-.108-1.365.103.921.815 1.8 1.679 2.586 2.639" fill="#6A737D"/><path d="M242.947 108.133c-.72.258-1.593.771-2.439 1.476a9.53 9.53 0 00-1.488 1.525 46.896 46.896 0 002.406 3.309c.348-.18.711-.396 1.082-.648.304-.211.61-.439.913-.694.927-.768 1.659-1.592 2.111-2.327-.785-.957-1.664-1.825-2.585-2.641" fill="#959DA5"/><path d="M245.887 108.916c-.579-.699-2.625.042-4.569 1.653-1.941 1.613-3.048 3.488-2.466 4.187.582.7 2.628-.038 4.569-1.653 1.944-1.613 3.048-3.488 2.466-4.187z" fill="#2F363D"/><path d="M277.384 147.217l-.571-1.743a.69.69 0 00-.098-.186c-.007-.009-.012-.012-.018-.021-.241-.291-.732-.333-1.36-.168.615 1.149 1.188 2.316 1.656 3.528.349-.573.502-1.077.391-1.41" fill="#6A737D"/><path d="M275.339 145.099c-.522.134-1.134.408-1.785.8-.465.28-.948.628-1.425 1.021-.864.72-1.563 1.488-2.019 2.181 1.044 1.01 2.166 1.926 3.387 2.694a9.709 9.709 0 001.644-1.116c.816-.678 1.461-1.407 1.854-2.052-.468-1.212-1.041-2.379-1.656-3.528z" fill="#959DA5"/><path d="M269.644 151.084a.716.716 0 00.152.144l1.486.996c.404.27 1.242.09 2.214-.429a21.226 21.226 0 01-3.387-2.694c-.558.852-.763 1.59-.465 1.983" fill="#6A737D"/><path d="M276.698 145.266c-.581-.699-2.628.042-4.569 1.656-1.944 1.614-3.048 3.486-2.469 4.184.585.702 2.628-.038 4.572-1.652 1.941-1.614 3.045-3.489 2.466-4.188" fill="#6A737D"/><path d="M267.997 144.276l3.903 4.77c.406-.144.796-.33 1.164-.555a351.896 351.896 0 01-4.173-5.11l-.894.895z" fill="#959DA5"/><path d="M274.345 147.425l-4.136-5.313c-.446.416-.885.839-1.318 1.269a335.044 335.044 0 004.173 5.109c.476-.291.908-.65 1.281-1.065" fill="#6A737D"/><path d="M260.19 104.746l-8.586 4.341-16.491 18.31 10.488-7.492 14.589-15.159z" fill="#D1D5DA"/><path d="M260.19 104.746l-14.589 15.159-10.488 7.492 25.302 24.972 8.49-3.996 13.986-17.646-22.701-25.981z" fill="#959DA5"/><path d="M241.45 104.446c3.162 3.693 6.408 7.314 9.684 10.914 3.276 3.597 6.582 7.17 9.879 10.755a838.19 838.19 0 019.822 10.824c3.24 3.645 6.426 7.335 9.501 11.128l-.828.671c-3.057-3.774-6.237-7.455-9.468-11.091-3.228-3.636-6.513-7.227-9.81-10.812-3.294-3.582-6.603-7.155-9.882-10.761-3.279-3.6-6.534-7.229-9.708-10.937l.81-.691z" fill="#959DA5"/><path d="M242.736 103.272c12.531 13.238 27.681 27.545 39.255 41.637" stroke="#A04100" stroke-width="3.406" stroke-miterlimit="10"/><path d="M235.166 127.764l23.583 27.924 10.473-7.554-23.412-28.413-10.644 8.043z" fill="#444D56"/><path d="M260.219 104.551l2.49 2.492s-3.927-.098-6.132-.321c-2.202-.225 3.642-2.171 3.642-2.171z" fill="#000"/><path clip-rule="evenodd" d="M258.567 147.035c2.625-2.047 1.766-7.543-1.918-12.265-3.683-4.721-8.805-6.892-11.43-4.845-2.625 2.048-1.765 7.544 1.918 12.266 3.684 4.721 8.805 6.892 11.43 4.844z" stroke="#959DA5" stroke-width=".641" stroke-miterlimit="10"/><path d="M248.333 152.734l9.435-6.601c1.557-2.025.972-4.284-3.24-10.517-4.206-6.235-9.039-4.366-9.039-4.366l-5.736 10.974c-3.012 5.751 8.58 10.51 8.58 10.51" fill="#444D56"/><path d="M254.19 141.721a11.286 11.286 0 002.171-3.264 62.719 62.719 0 00-1.832-2.841c-4.206-6.234-9.04-4.366-9.04-4.366l-5.735 10.975c-1.36 2.594.255 4.988 2.435 6.831 4.66-.886 8.88-3.723 12.001-7.335" fill="#2F363D"/><path d="M256.36 138.457a11.222 11.222 0 01-2.172 3.264c-3.117 3.612-7.338 6.45-11.997 7.335 2.652 2.244 6.141 3.678 6.141 3.678l9.435-6.6c1.29-1.683 1.107-3.528-1.407-7.677z" fill="#586069"/><path d="M242.676 130.244c2.214.069 4.437.633 6.372 1.749 1.938 1.104 3.546 2.688 4.821 4.452 2.55 3.567 3.954 7.725 4.77 11.925l-1.467.267c-.777-4.02-2.148-8.022-4.509-11.316-1.182-1.635-2.64-3.057-4.359-4.035-1.71-.984-3.666-1.482-5.655-1.551l.027-1.491z" fill="#6A737D"/><path d="M241.16 135.734c1.976-.003 3.92.624 5.562 1.641 1.649 1.014 3.035 2.376 4.179 3.885 2.229 3.045 3.782 6.666 3.708 10.605l-1.489-.078c.082-3.381-1.35-6.852-3.41-9.627-2.059-2.769-5.148-4.956-8.55-4.935v-1.491z" fill="#6A737D"/><path d="M240.417 138.141c1.545.573 3.075 1.32 4.44 2.334 1.368 1.014 2.505 2.304 3.444 3.684 1.869 2.781 3.036 5.862 4.074 8.928l-1.413.471c-1.017-3.006-2.163-5.994-3.894-8.562-1.686-2.61-4.218-4.419-7.17-5.454l.519-1.401z" fill="#6A737D"/><path d="M219.154 188.61c2.025.009 3.686-1.68 3.693-3.858.003-1.814-1.131-3.384-2.7-3.936l-1.3-.452a3.662 3.662 0 00-1.295-.208c-2.175.036-3.774 1.959-3.6 4.191.132 1.695 1.251 3.093 2.706 3.603l1.299.456c.384.135.789.204 1.196.204h.001zm-1.47-2.082c-.031 0-.061 0-.09-.003a2.33 2.33 0 01.018-3.768 2.333 2.333 0 011.458-.441 2.334 2.334 0 01-1.386 4.212" fill="#586069"/><path d="M220.858 181.96l1.398 1.578c8.817-7.107 5.829-7.515 1.543-16.374l-.844-.972-.627 1.224c4.189 8.661 4.963 7.722-2.312 13.572l.842.972z" fill="#586069"/><path d="M237.058 151.913c-3.348-3.549-6.75-6.786-9.996-9.564-1.695-.396-3.402-.504-4.998-.297-3.06.366-6.192 1.437-9.069 3.012 6.033 8.991 16.731 20.259 25.731 27.408 1.824-4.329 3.346-8.778 4.698-13.293a126.546 126.546 0 00-6.366-7.266" fill="#6A737D"/><path d="M227.062 142.348c-8.139-6.964-15.315-11.058-18.282-10.006-1.557 2.232.393 7.02 4.218 12.721 2.877-1.572 6.006-2.646 9.066-3.012 1.596-.207 3.303-.099 4.998.297" fill="#6A737D"/><path d="M243.424 159.179c-1.353 4.515-2.874 8.964-4.698 13.293 6.318 5.016 11.796 8.004 14.241 6.747 2.226-2.271-1.758-10.419-9.543-20.04z" fill="#444D56"/><path d="M227.099 148.992a13.714 13.714 0 00-3.319-.141l-1.74 2.223 2.215 2.268a73.8 73.8 0 012.844-4.35" fill="#959DA5"/><path d="M230.605 150.015a15.034 15.034 0 00-3.506-1.023 73.298 73.298 0 00-2.844 4.35l1.536 1.575a87.544 87.544 0 014.814-4.902" fill="#444D56"/><path d="M230.605 150.015a87.544 87.544 0 00-4.814 4.902l10.962 11.237 2.322-1.494c.239-2.412-.024-4.835-1.039-7.274-1.25-3.306-4.071-5.934-7.431-7.371" fill="#444D56"/><path d="M227.099 148.992a74.37 74.37 0 015.555-6.968c-1.07-.502-2.057-.792-2.888-.835l-5.986 7.662a13.704 13.704 0 013.318.141" fill="#959DA5"/><path d="M232.655 142.022a74.802 74.802 0 00-5.556 6.97 15.04 15.04 0 013.507 1.022c1.95-1.854 3.968-3.654 5.982-5.451-1.359-1.104-2.703-1.968-3.933-2.541z" fill="#444D56"/><path d="M246.31 160.008c-1.515-6.645-5.67-12.142-9.723-15.444-2.013 1.797-4.029 3.597-5.982 5.451 3.36 1.437 6.18 4.065 7.431 7.37 1.017 2.437 1.278 4.863 1.038 7.275l7.236-4.652z" fill="#444D56"/><path d="M233.746 131.679c-6.078.913-12.363 1.314-18.486 2.271a43.027 43.027 0 013.606 2.145c5.652-.723 11.364-1.206 16.713-2.865a33.07 33.07 0 00-1.833-1.551" fill="#6A737D"/><path d="M228.78 129.462c-21.135 2.624-19.559 2.39-19.706 2.531a2.358 2.358 0 00-.295.349c1.371-.486 3.636.126 6.483 1.61 6.12-.957 12.406-1.362 18.483-2.273-2.06-1.612-3.806-2.482-4.965-2.217z" fill="#E1E4E8"/><path d="M235.581 133.231c-5.35 1.659-11.065 2.142-16.714 2.865 5.322 3.495 11.85 9.096 18.192 15.819a125.757 125.757 0 016.792 7.797 227.245 227.245 0 005.259-10.465c-4.104-5.912-9.258-12.15-13.529-16.016z" fill="#959DA5"/><path d="M249.866 150.352l-.756-1.105a233.414 233.414 0 01-5.256 10.465 95.791 95.791 0 013.744 4.994c1.712-3.443 3.26-6.948 4.739-10.509a92.654 92.654 0 00-2.471-3.845zm4.034 6.562c-1.338 3.876-2.526 7.842-3.703 11.799 3.067 5.151 4.204 9.042 2.77 10.506a2.53 2.53 0 00.459-.306c1.806-1.962 2.901-15.315 2.901-15.543-.01-1.383-.928-3.684-2.427-6.456" fill="#6A737D"/><path d="M252.338 154.198c-1.479 3.561-3.027 7.063-4.74 10.509a67.01 67.01 0 012.598 4.006c1.179-3.955 2.364-7.924 3.705-11.8a64.655 64.655 0 00-1.563-2.715" fill="#444D56"/><path d="M231.098 157.181c4.005 4.134 6.504 8.121 5.655 8.973-.852.855-4.764-1.728-8.802-5.838-4.119-4.191-6.796-8.361-5.91-9.241.888-.878 4.977 1.891 9.057 6.106" fill="#6A737D"/><path d="M205.683 186.876c2.211.669 4.497-.315 5.214-2.19.471-1.23.174-2.598-.688-3.645l21.328-20.253c-.516-1.278-1.23-2.046-1.683-2.439l-.819-.711c-.268-.228-1.641-.606-1.641-.606l-19.491 22.17a7.119 7.119 0 00-.435-.201c-2.325-.927-4.914.024-5.661 2.142-.552 1.572.108 3.255 1.467 4.29l.876.663c.443.339.96.606 1.533.78zm.426-1.86a2.668 2.668 0 01-1.161-.273 2.43 2.43 0 01-.603-1.464c-.072-1.326.999-2.388 2.385-2.373a2.64 2.64 0 011.157.276c.357.409.566.925.594 1.467.067 1.314-.995 2.373-2.372 2.367" fill="#586069"/><path d="M219.913 186.988c1.3.008 2.311-.982 2.247-2.254-.062-1.32-1.248-2.426-2.636-2.424-1.381.003-2.368 1.104-2.212 2.412.147 1.26 1.309 2.256 2.601 2.266zm-4.041-2.2c-.272-2.256 1.317-4.188 3.576-4.203 2.277-.015 4.191 1.914 4.266 4.194.069 2.166-1.569 3.84-3.645 3.831-2.064-.006-3.933-1.676-4.197-3.822zm-6.641-.455c-.45 1.176-1.831 1.809-3.13 1.41-1.353-.417-2.121-1.785-1.661-3.054.464-1.284 1.973-1.902 3.315-1.392 1.293.492 1.931 1.848 1.476 3.036zm22.307-23.349c-.818-2.019-2.124-2.769-2.124-2.769l-20.643 21.864a5.283 5.283 0 00-.438-.201c-2.313-.924-4.898.024-5.643 2.142-.734 2.082.663 4.35 2.992 5.052 2.21.669 4.496-.315 5.213-2.19.471-1.23.174-2.595-.684-3.642l21.327-20.256z" fill="#444D56"/><path d="M223.486 168.396l.609-1.246c4.677 9.141 7.707 9.603-1.029 16.614l-1.488-1.598c7.245-5.788 6.487-4.852 1.908-13.77" fill="#444D56"/><path d="M332.544 153.07l-.516-1.806-1.866-.93-1.221.633-1.353.87.516 1.803 1.866.933 1.221-.633 1.353-.87zm-2.457-.704l.066.234-.108-.057-.066-.231.108.054z" fill="#6A737D"/><path d="M330.045 152.543l.87.438.63-.408-.237-.843-.873-.432-.63.405.24.84zm-.723.465l-.513-1.803 1.353-.87 1.865.93.517 1.806-1.353.87-1.869-.933z" fill="#959DA5"/><path d="M316.627 126.205l10.188-6.066c-.526 2.098-.15 4.194.975 5.766l-12.285 10.113c-.75-2.099-.9-7.191 1.122-9.813z" fill="#E36209"/><path d="M324.121 123.515l.231 2.466-2.109 1.61-.096-2.6 1.974-1.476zm-1.878 4.078l.108 2.988-2.322 1.821.051-3.16 2.163-1.649zm-.021-4.729l-.074 2.124-2.022 1.512.039-2.4 2.057-1.236z" fill="#6A6300"/><path d="M316.708 130.203s2.397-.915 3.574-1.417c.072-1.307.252-2.592.525-3.881-1.291.699-3.576 2.451-3.576 2.451l-.523 2.847z" fill="#767676"/><path d="M317.216 129.592c.901-.346 1.798-.702 2.691-1.068.064-.953.182-1.902.354-2.841-1.044.666-2.292 1.599-2.676 1.893l-.369 2.016z" fill="#000"/><path d="M317.699 127.726l.204 1.059.342-.894.297.378.255-.63.396.456.438-.747.204-.561.156.444" fill="#000"/><path d="M317.699 127.726l.204 1.059.342-.894.297.378.255-.63.396.456.438-.747.204-.561.156.444" stroke="#37B9DF" stroke-width=".216" stroke-miterlimit="10"/><path d="M322.018 136.768c-1.534 1.813-3.19 3.789-2.529 6.555.077.312.108.597.108.867 0 1.695-1.386 2.52-2.787 2.52-1.438 0-2.886-.864-2.886-2.541 0-2.139 6.012-9.828 6.612-10.578.182-.23.267-.405.272-.405.457 0 2.862 1.545 2.646 1.921 0 .023-.983 1.124-1.436 1.661" fill="#000"/><path d="M317.14 132.372c3.009 1.164 5.753 3.126 7.707 5.721l-.507.39c-1.887-2.505-4.512-4.383-7.434-5.517l.234-.594zm-.78 3.01c2.421.999 4.677 2.299 7.134 2.958l-.165.615c-2.565-.693-4.845-2.01-7.212-2.982l.243-.591zm-.472 2.211c1.849.405 3.547 1.203 5.244 1.86l-.23.597c-1.728-.669-3.393-1.449-5.155-1.833l.141-.624zm-.65 1.087c1.986.51 4.083 1.08 5.838 2.319l-.363.528c-1.656-1.167-3.639-1.713-5.64-2.232l.165-.615zm-2.628 4.816c.528-.741 1.296-1.353 2.187-1.617.891-.279 1.845-.228 2.709.015 1.728.501 3.246 1.653 4.128 3.246l-.567.297c-.768-1.404-2.181-2.49-3.732-2.928-1.548-.486-3.303-.003-4.206 1.359l-.519-.372z" fill="#6A6A6A"/><path d="M296.175 123.142l1.095 1.671 1.508 1.852-1.095-1.669-1.508-1.854z" fill="#9B9B9B"/><path d="M300.133 123.181l-.093.148.093-.148zm-.504.236l.411-.086-.411.086z" fill="#B7B7B7"/><path d="M298.63 121.601l1.473-.315.705.864-.675 1.032-.093.147-.411.087-1.062.231-.708-.864.771-1.182zm2.214 2.718l1.65-2.532-1.512-1.854-3.159.678-1.647 2.532 1.509 1.854 3.159-.678z" fill="#6A737D"/><path d="M297.684 124.996l1.095 1.669 3.162-.679-1.095-1.667-3.162.677z" fill="#6A737D"/><path d="M302.494 121.787l-1.65 2.532 1.095 1.668 1.65-2.532-1.095-1.668z" fill="#959DA5"/><path d="M300.806 122.149l-.702-.864.426 1.287.276-.423z" fill="#9B9B9B"/><path d="M297.859 122.782l.705.864 1.066-.229.096-.147-1.096-1.671-.771 1.183z" fill="#959DA5"/><path d="M300.532 122.572l-.429-1.287-1.474.315 1.096 1.668.407-.087.4-.609z" fill="#6A737D"/><path d="M332.377 122.033c-1.149 1.866-2.685 1.893-4.344 1.974.12.291.291.585.525.858.78.924 1.89 1.278 2.496.795l2.523-2.022a.12.12 0 00.018-.015c.468-.393.474-1.188.084-1.965-.552-.18-1.062-.105-1.302.375" fill="#586069"/><path d="M332.377 122.033c.24-.48.75-.555 1.302-.375a3.392 3.392 0 00-.426-.642c-.783-.927-1.893-1.281-2.496-.798l-2.529 2.022a.065.065 0 00-.018.015c-.423.357-.468 1.047-.177 1.752 1.659-.081 3.195-.108 4.344-1.974" fill="#959DA5"/><path d="M333.253 121.015c.789.936.942 2.103.342 2.61-.597.504-1.722.153-2.514-.783-.786-.936-.942-2.103-.342-2.61.597-.504 1.722-.153 2.514.783z" fill="#767676"/><path d="M331.712 121.362c.003.124.065.354.273.597.204.243.42.345.543.369l5.202-4.082a.976.976 0 00-.159-.445 1.447 1.447 0 00-.114-.153c-.204-.243-.424-.348-.546-.369l-5.199 4.083z" fill="#7E6AA8"/><path d="M332.271 119.234c-.024.606-.375 1.374.006 1.803.447.351 1.191.159 1.785.027 1.239-.34 2.445-.864 3.57-1.479l.108.183c-1.155.63-2.355 1.152-3.627 1.503-.621.114-1.341.384-1.983-.081-.507-.66-.069-1.332-.072-1.968l.213.012z" fill="#A5D6FF"/><path d="M331.814 119.786c-.024.606-.375 1.374.007 1.803.446.351 1.19.159 1.784.027 1.239-.339 2.445-.864 3.57-1.479l.108.183c-1.155.63-2.355 1.152-3.627 1.503-.621.114-1.341.384-1.983-.081-.507-.66-.069-1.332-.072-1.968l.213.012z" fill="#A5D6FF"/><path d="M333.396 119.27c-.189.279-.396.588-.435.891-.054.309.363.342.684.294.678-.084 1.344-.332 1.998-.573 1.311-.507 2.577-1.109 3.837-1.743l.093.192c-1.254.63-2.535 1.239-3.855 1.749-.66.243-1.326.495-2.049.585-.279.063-.96.042-.918-.519.057-.405.273-.699.468-.999l.177.123z" fill="#A5D6FF"/><path d="M334.302 117.407c-.304.681-.766 1.422-.489 2.073.137.285.594.12.941.072.371-.087.738-.188 1.101-.303 1.455-.459 2.875-1.026 4.308-1.578l.073.201c-1.423.549-2.854 1.119-4.317 1.581-.37.111-.738.225-1.116.306-.337.024-.856.294-1.18-.171-.339-.855.211-1.599.483-2.265l.196.084z" fill="#A5D6FF"/><path d="M337.188 117.875c-.208-.244-.273-.475-.277-.598.123.025.339.126.547.37.203.242.27.476.272.599-.123-.023-.339-.126-.542-.371z" fill="#222112"/><path d="M315.274 137.75l5.534-4.564s-2.687 3.888-3.603 6.688c-.918 2.795-.234 3.953-.966 4.724-.735.774-2.25 1.255-2.279 0-.036-1.253 1.314-6.848 1.314-6.848" fill="#B98B3E"/><path d="M336.323 117.816a20.992 20.992 0 00-3.053 2.481c.092.129.18.258.284.381 1.071 1.251 2.565 1.767 3.462 1.242a.24.24 0 01.034-.021l4.523-2.646c.042-.024.078-.051.117-.081.024-.015.045-.033.066-.048.928-.774.858-2.415-.08-3.921a6.582 6.582 0 00-.543-.741c-.694-.81-1.53-1.374-2.332-1.638-1.751 2.466.211 3.006-2.478 4.992" fill="#586069"/><path d="M336.646 113.017a.398.398 0 00-.064.051l-.047.039-3.517 3.876c-.746.666-.615 2.076.252 3.315a20.365 20.365 0 013.055-2.481c2.684-1.989.725-2.526 2.478-4.992-.82-.27-1.599-.225-2.157.192" fill="#959DA5"/><path d="M337.205 117.726c-1.431-1.671-1.707-3.756-.624-4.659 1.083-.903 3.12-.275 4.551 1.396 1.428 1.671 1.707 3.759.624 4.659-1.086.903-3.12.276-4.551-1.396z" fill="#923D6E"/><path d="M341.093 115.175c-.015-.024-.027-.049-.042-.072a5.107 5.107 0 00-1.002-1.143 37.981 37.981 0 00-2.766 2.418c.114.264.252.528.42.792 1.116-.714 2.259-1.362 3.39-1.995zm.756 2.371c.003-.459-.115-.984-.331-1.518a110.486 110.486 0 01-3.161 1.971c.33.348.684.615 1.032.81.813-.347 1.632-.687 2.448-1.041.005-.072.012-.144.012-.222" fill="#7E6AA8"/><path d="M339.388 118.809c.267.15.531.261.78.315.432.096.786.039 1.056-.129.159-.102.291-.243.393-.426.117-.21.195-.483.219-.801-.816.354-1.635.693-2.448 1.041zm-1.032-.808a106.4 106.4 0 003.163-1.975 5.416 5.416 0 00-.427-.851c-1.131.635-2.273 1.281-3.389 1.994l.015.025c.198.306.414.569.638.807zm1.694-4.042a4.329 4.329 0 00-.567-.423 43.719 43.719 0 01-2.463 2.043c.06.258.147.528.264.798a37.981 37.981 0 012.766-2.418" fill="#000"/><path d="M339.482 113.537a2.965 2.965 0 00-.879-.366c-.432-.093-.789-.036-1.056.129-.268.171-.471.465-.567.891-.087.393-.079.87.042 1.389a44.83 44.83 0 002.46-2.043" fill="#7E6AA8"/><path d="M249.494 121.733l8.283-7.218 14.298 16.566-5.055 11.835-17.526-21.183z" fill="#6A737D"/><path d="M251.779 113.177c5.506 5.958 10.81 12.093 16.098 18.237l.097.111-.025.15c-.666 3.978-1.122 8.001-1.88 11.997l-.628-.126c.754-3.951 1.212-7.977 1.878-11.979l.076.261c-5.289-6.141-10.591-12.27-16.086-18.216l.47-.435z" fill="#000"/><path fill-rule="evenodd" clip-rule="evenodd" d="M268.982 131.173l4.766-.306.04.639-4.765.306-.041-.639z" fill="#000"/><path d="M265.167 125.135c.594-.523.312-1.948-.654-3.229-.99-1.307-2.319-1.971-2.97-1.479-.015.012-.03.021-.045.036l-2.433 2.139c-.594.525-.312 1.947.654 3.228.99 1.308 2.316 1.971 2.97 1.479a.16.16 0 00.042-.036l2.436-2.138z" fill="#EA4A5A"/><path d="M264.514 121.907c.987 1.311 1.26 2.772.609 3.261-.654.492-1.983-.168-2.97-1.479-.987-1.311-1.263-2.772-.609-3.264.651-.489 1.98.171 2.97 1.482z" fill="#D73A49"/><path d="M259.375 125.446c.438-.396.222-1.548-.495-2.646-.75-1.149-1.809-1.872-2.37-1.587a.286.286 0 00-.042.024l-2.358 1.47c-.648.405-.456 1.78.459 3.078.918 1.305 2.16 1.956 2.763 1.494.015-.012.03-.024.042-.036l2.001-1.797z" fill="#F66A0A"/><path d="M258.88 122.8c.735 1.124.942 2.309.456 2.675-.507.381-1.584-.258-2.397-1.467-.834-1.23-1.02-2.499-.429-2.796.561-.284 1.62.441 2.37 1.588" fill="#F5C88A"/><path d="M354.95 33.018c1.383-.252 2.541.018 3.564.63a5.792 5.792 0 00-4.377-1.993 5.812 5.812 0 00-4.569 9.4 9.355 9.355 0 01-.368-1.437c-.64-3.618 2.558-5.962 5.75-6.6z" fill="#959DA5"/><path d="M354.139 43.277a5.809 5.809 0 005.811-5.81c0-1.462-.543-2.8-1.434-3.82-1.026-.612-2.184-.882-3.564-.63-3.195.64-6.39 2.982-5.751 6.6.087.504.213.982.369 1.437a5.786 5.786 0 004.569 2.223" fill="#2F363D"/><path d="M327.353 69.05c1.467-6.852 8.073-9.786 14.682-9.786.666 0 1.335-.165 2.007-.399a12.796 12.796 0 00-6.258-1.63 12.836 12.836 0 00-9.111 3.78 12.83 12.83 0 00-3.753 9.085c0 2.976 1.014 5.712 2.712 7.89a15.715 15.715 0 01-.279-8.94" fill="#444D56"/><path d="M344.043 58.865c-.674.234-1.34.399-2.009.399-6.606 0-13.212 2.934-14.68 9.786a15.741 15.741 0 00.277 8.94 12.829 12.829 0 0010.152 4.97c4.437 0 8.345-2.246 10.659-5.663a12.795 12.795 0 002.202-7.197c0-4.83-2.664-9.036-6.601-11.235" fill="#2F363D"/><path d="M349.288 58.928c-10.036.507-19.941 6.59-26.146 14.634l-.671-.52c6.405-8.312 16.259-14.436 27.681-15.011-5.898 7.854-1.977-2.17-30.988 23.019l-.56-.642c27.822-24.156 25.904-16.266 30.317-22.158l.367.678zm4.289 4.973c-3.558 11.421-12.916 18.048-23.637 20.457l-.094-.414c10.372-2.334 19.872-9.09 23.001-19.137l.37.201c-6.487 7.848-17.103 13.845-27.028 16.47l-.108-.411c9.925-2.625 20.194-8.331 27.496-17.166" fill="#24292E"/><path d="M344.723 67.986c1.938-2.052 3.807-3.95 6.252-5.424l.291.636c-4.965 2.988-7.851 7.455-12.486 10.533-4.359 2.895-10.503 4.083-15.291 6.279l-.09-.192c9.216-4.23 12.39-2.352 21.324-11.832zm-1.33-10.9l.036.21c-9.342 1.686-12.402 6.417-20.586 13.194l-.351-.864c7.539-6.246 12.114-10.953 20.901-12.54z" fill="#24292E"/><path clip-rule="evenodd" d="M335.433 70.393c-.657 0-1.392.174-2.103.498-.828.378-1.521.912-1.95 1.503-.402.558-.519 1.092-.333 1.506.192.417.672.678 1.356.738.732.066 1.587-.108 2.412-.486.828-.375 1.521-.909 1.947-1.503.405-.558.522-1.092.336-1.506-.192-.414-.672-.678-1.356-.738a3.627 3.627 0 00-.309-.012v0zm-2.664 5.085c-.114 0-.225-.005-.336-.015-.834-.081-1.434-.459-1.686-1.062s-.12-1.344.375-2.085c.462-.702 1.206-1.332 2.085-1.77.882-.441 1.803-.64 2.595-.564.831.081 1.431.46 1.683 1.062.255.603.123 1.347-.369 2.088-.468.699-1.209 1.329-2.091 1.767-.759.378-1.545.58-2.256.58v0z" stroke="#444D56" stroke-width=".245" stroke-miterlimit="10"/><path clip-rule="evenodd" d="M331.533 73.716c.259.489 1.512.79 3.111.062 1.6-.73 2.196-1.875 1.993-2.388-.01-.02-.018-.042-.028-.06-.257-.489-1.512-.795-3.11-.066-1.599.73-2.19 1.879-1.992 2.391.008.021.018.04.026.06v0zm1.278.705c-.723 0-1.256-.24-1.451-.613l-.003-.003c-.009-.027-.022-.05-.033-.078-.27-.69.453-1.893 2.094-2.643 1.64-.747 3.024-.501 3.368.153l.036.078c.27.69-.455 1.896-2.096 2.646-.705.321-1.365.46-1.915.46v0z" stroke="#444D56" stroke-width=".245" stroke-miterlimit="10"/><path d="M369.283 79.437l.455-.186c.175-.072.249-.204.225-.393-.048-.297-.282-.525-.554-.62-.112-.043-.229.008-.313.08-.24.21-.447.468-.54.777a.987.987 0 00.198.954.79.79 0 00.943.207c.296-.14.464-.456.5-.77.058-.55-.372-1.156-.963-1.096a.984.984 0 00-.75.48.781.781 0 00.069.882c.165.198.453.294.705.27.315-.027.594-.207.684-.522.045-.159-.057-.354-.222-.39-.171-.039-.347.051-.393.222-.006.015-.026.072-.003.018.021-.057-.003-.006-.012.01-.018.038.057-.058.012-.016-.012.009-.063.051-.012.015.045-.036.007-.006-.009.003-.009.006-.033.012-.042.02.004-.002.081-.026.04-.014a.039.039 0 00-.022.006l-.057.012c-.06.015.075 0 .021-.003-.018 0-.032.003-.048.003-.018 0-.036 0-.054-.003-.045 0 .088.018.012.003-.03-.006-.057-.018-.086-.027-.04-.01.065.036.032.015l-.014-.01c-.018-.008-.036-.02-.052-.029-.042-.024.06.057.016.012-.01-.009-.025-.033-.034-.036.021.01.042.066.016.018-.004-.006-.01-.018-.016-.024-.02-.033.016.03.016.036-.004-.018-.013-.036-.016-.054-.006-.012-.012-.057-.002-.003.008.048 0 .018.002.006 0-.018.006-.087-.002-.03-.01.057.008-.021.011-.036 0-.009.009-.021.009-.027.003.033-.03.06-.012.027l.028-.048c.005-.01.047-.072.018-.03-.034.042.02-.018.029-.027.012-.012.043-.03.048-.045-.003.006-.059.042-.018.015.009-.003.015-.01.024-.015.018-.012.039-.02.061-.03.008-.006.038-.021-.007 0-.047.02.003 0 .015-.003.018-.009.042-.009.064-.018.029-.012-.036.006-.04.006l.036-.003c.022-.003.04 0 .058 0 .05 0-.025 0-.031-.006.006.006.031.006.039.009.012.003.082.03.028.009-.049-.024.011.006.023.015.013.006.072.048.027.012-.045-.036.018.015.027.024.013.012.024.036.036.045 0 0-.036-.057-.021-.03.003.009.009.015.012.021a.263.263 0 01.033.051c.007.012.043.087.018.033-.021-.054.007.015.009.027l.018.06c.003.018.006.042.012.063 0 0-.006-.075-.006-.042a.112.112 0 00.003.045v.051c-.003.015-.009.087 0 .027s-.006.015-.009.027c-.002.024-.012.045-.018.07-.002.008-.012.023-.012.032 0-.003.033-.06.015-.036-.012.015-.021.036-.03.054-.009.012-.047.078-.024.036.021-.033.003-.006-.003 0-.015.015-.024.027-.038.042-.004.003-.022.015-.025.021 0-.006.048-.033.021-.018-.014.01-.057.024-.068.036.008-.01.068-.018.014-.01l-.03.01c-.03.009.034-.006.036-.006h-.048c-.026.009.03.003.036.009-.006-.006-.03-.006-.036-.009-.012-.003-.087-.027-.033-.012.045.018-.021-.012-.033-.018-.009-.006-.036-.027 0 0l-.014-.012c-.016-.015-.04-.051-.054-.06l.014.024c-.006-.015-.018-.027-.027-.042a4.952 4.952 0 01-.036-.066c-.021-.036.021.06.009.021-.003-.015-.009-.027-.014-.04l-.01-.041c-.003-.012-.012-.06-.003-.009.006.05 0 .006 0-.006v-.045l.003-.045c.003-.042-.012.057 0 .018l.021-.09c.003-.015.009-.027.015-.042.003-.01.021-.057.003-.015-.018.039.003-.006.009-.015.006-.015.016-.027.021-.042.027-.054.063-.105.099-.156.024-.03-.012.018-.012.018-.002-.003.034-.039.039-.045a2.194 2.194 0 01.207-.21c-.102.03-.207.057-.312.084.066.024-.054-.04 0 0 .014.011.029.02.046.027.032.02-.049-.045-.007-.003.009.009.033.042.043.048-.022-.015-.034-.05-.007-.006 0 .003.027.045.025.045-.016-.039-.022-.048-.013-.027l.009.03c.006.02.01.041.012.063.075-.132.147-.264.226-.396-.154.063-.306.126-.46.186a.362.362 0 00-.192.147.33.33 0 00-.032.246c.05.15.227.291.396.225" fill="#D0D0D0"/><path d="M383.298 102.463c.288 1.215 1.878-.588.504-.753-1.164-.144-.804 1.851.294 1.344 1.209-.555-.375-2.178-.963-.984-.21.435.189 1.05.669.984.48-.069.657-.849.231-1.08-.543-.294-.912.531.114.849" fill="#7C7C7C"/><path d="M332.632 89.326a.52.52 0 00.168-.03.656.656 0 00.204-.12c.044-.036.075-.081.108-.123a.866.866 0 00.123-.408.74.74 0 00-.075-.327c-.024-.051-.066-.099-.102-.141a.521.521 0 00-.147-.105.335.335 0 00-.246-.032.34.34 0 00-.193.146.333.333 0 00.023.356.31.31 0 00.092.082c.02.008.04.02.057.033-.021-.018-.042-.033-.066-.05a.386.386 0 01.045.044c-.018-.021-.033-.042-.051-.066a.308.308 0 01.042.07c-.012-.025-.024-.049-.034-.076.013.027.018.057.025.087a.632.632 0 01-.012-.087.756.756 0 010 .117c.003-.026.005-.057.012-.084a.566.566 0 01-.033.114c.012-.024.021-.05.033-.078-.012.03-.03.058-.045.084.012-.02.03-.042.048-.065a.399.399 0 01-.057.06c.021-.019.042-.034.063-.052a.194.194 0 01-.054.033c.02-.009.048-.018.074-.03a.283.283 0 01-.065.018c.024-.003.054-.006.083-.012-.008.004-.014.004-.02.004a.32.32 0 00-.225.092.325.325 0 000 .453.306.306 0 00.225.093" fill="#D0D0D0"/><path d="M279.185 50.197c1.462.132 1.863-1.533.3-1.533-1.43.654-.576 1.533-.3 1.533z" fill="#7F7F7F"/><path d="M305.465 27.623c.279.054.57-.04.756-.265.192-.236.261-.549.111-.83-.12-.226-.366-.342-.609-.36a.71.71 0 00-.645.293.652.652 0 00.009.733c.168.242.432.383.729.339.306-.049.483-.342.579-.607.087-.249.123-.524.066-.783a.774.774 0 00-.51-.582c-.216-.072-.465-.02-.66.085a.849.849 0 00-.408.506.71.71 0 00.177.67c.309.305.843.293 1.167.023a.641.641 0 00.165-.206c.024-.052.045-.108.06-.162.024-.127-.015-.232-.063-.345a.905.905 0 00-.606-.484c-.264-.056-.555.013-.738.225-.168.202-.255.475-.18.735.075.28.318.457.603.478a.748.748 0 00.642-.324.59.59 0 00.093-.342c-.006-.169-.141-.327-.318-.319-.165.006-.327.142-.321.319.003.015-.003.077.006.015.006-.064-.003-.01-.006.003-.006.036.036-.067.018-.036-.006.002-.009.011-.012.018l-.009.015c-.012.024.057-.06.018-.028-.009.01-.024.021-.03.03 0 0 .063-.042.039-.03l-.027.018-.036.018c-.03.021.072-.023.036-.012-.009.004-.018.004-.03.007-.003.003-.045.015-.045.011 0 0 .09-.006.027-.003-.018 0-.036-.003-.051-.003-.03.003.051.003.051.01l-.03-.007a.29.29 0 00-.027-.008c0-.007.069.036.045.018a.128.128 0 00-.045-.025c.003 0 .054.048.039.027-.003-.005-.012-.012-.015-.017-.009-.006-.03-.03.003.008.036.048.006.007 0-.006-.003-.005-.006-.012-.012-.018-.015-.023.018.042.018.042 0-.014-.012-.036-.015-.05-.015-.064 0 .062.003.018 0-.018.003-.04 0-.058 0-.036-.015.079-.003.043 0-.01.003-.018.003-.025l.012-.044.012-.03c0-.004-.033.063-.015.038a.727.727 0 00.03-.054c.003-.006.012-.011.012-.018 0-.003-.048.051-.024.033l.036-.039c.033-.038-.057.036-.015.01.015-.01.039-.018.054-.03-.003 0-.066.02-.042.018.012-.003.021-.01.033-.013.012-.003.078-.015.021-.005-.06.012.015.005.03.002.012 0 .042.006-.009-.003-.06-.009.003.003.012.006.021.003.039.013.06.018.033.01-.033-.018-.033-.015.009.007.027.012.039.022.015.006.078.054.039.02l.024.021c.018.018.03.04.048.055 0 0-.036-.057-.021-.028.006.012.018.025.024.04.009.011.039.078.018.026-.021-.048-.003-.005 0 .006.006.012.009.03.012.046v-.172c-.003.018-.012.04-.015.058-.009.036.042-.079.015-.036a.055.055 0 00-.012.023c-.006.006-.009.013-.015.021-.024.042.051-.056.024-.033l-.045.046c-.021.026.078-.049.033-.025a.072.072 0 01-.024.012l-.042.028c-.045.023.072-.028.033-.015l-.027.008c-.021.01-.045.012-.066.018-.069.018.069-.006.021-.003-.021.003-.045.003-.063.003l-.054-.003c-.051 0 .051.006.045.01-.006.003-.03-.007-.039-.01a.364.364 0 01-.057-.015c-.006-.003-.021-.005-.027-.011-.003-.007.081.044.039.018a.165.165 0 00-.045-.028c-.012-.008-.039-.03.006.006.048.036.009.007 0-.006-.009-.002-.015-.012-.021-.02-.024-.021.006-.024.027.036-.006-.013-.021-.03-.027-.042-.03-.043.024.072.012.032l-.018-.06c-.012-.05.003.082.006.03 0-.02.003-.038.003-.056-.003.101-.006.041.006.006.012-.049-.039.074-.006.012.012-.022.027-.04.036-.06-.048.086-.018.03.003.006.015-.015.033-.03.048-.046-.066.07-.03.024 0 .003.024-.011.045-.02.066-.033.033-.02-.084.03-.027.012a.354.354 0 01.081-.024c.078-.017-.078.003 0 0l.069.003c0 .003-.087-.018-.042-.005l.027.006c.012.002.021.008.03.012.036.006-.066-.04-.036-.018.009.006.021.011.03.018.021.011.027.036-.03-.028.015.015.039.049.054.057-.033-.015-.033-.05-.015-.018l.027.043c.024.044-.012.018-.006-.015 0 .005.012.03.012.036.009.023.015.05.021.075.015.062-.006-.064-.003-.018 0 .02.003.038.003.06 0 .03 0 .06-.003.09 0 .014 0 .027-.003.038-.003.058 0-.018.003-.02-.012.014-.015.078-.018.099l-.027.098a.659.659 0 01-.024.075l-.015.048c-.015.04.024-.056.006-.018a1.075 1.075 0 01-.042.078l-.024.033a.11.11 0 00.015-.018c-.006.007-.012.01-.015.015 0-.003-.03.028-.03.028-.003-.015.063-.046.009-.012-.063.038.072-.024-.006.002-.048.015.042-.012.042-.005-.003.003-.027 0-.033 0-.054.003.072.018.033.005-.012-.005-.03-.008-.045-.012-.033-.006.078.04.027.012-.009-.005-.018-.008-.027-.015-.009-.006-.018-.011-.024-.018-.042-.023.021.018.024.021-.009-.014-.036-.036-.048-.047-.03-.028.042.069.015.02-.009-.015-.018-.027-.024-.041-.006-.01-.009-.022-.015-.028.042.064.021.057.015.034l-.009-.03c-.018-.058 0 .068.003.03.003-.013 0-.028 0-.037 0-.033.021-.02-.006.04.003-.006.006-.024.009-.03.009-.055-.039.06-.009.017.006-.009.009-.018.015-.024.027-.048-.048.049-.021.024a.153.153 0 00.027-.024c.021-.02.027 0-.033.024a.384.384 0 00.051-.027c-.066.045-.066.024-.033.016a.19.19 0 01.042-.013c.006-.003.015-.003.027-.005.03-.007-.093.005-.027.005.003 0 .078-.003.078.003.003.003-.087-.018-.042-.006.015.006.03.006.045.01.009.003.018.009.027.009.051.018-.072-.037-.024-.01.009.007.018.01.024.015.027.018.036.043-.018-.015a.363.363 0 01.048.048c-.054-.05-.033-.054-.018-.023.006.008.009.02.015.03-.045-.064-.018-.06-.009-.025 0 .013.015.078.003.018-.009-.056-.003-.005-.003.01.003.05.015-.064.003-.028-.003.013-.003.028-.006.04 0 .006-.003.011-.003.017l.009-.026c-.015.018-.027.05-.042.075-.018.03-.018-.006.021-.024-.012.006-.03.03-.039.039l-.027.023.024-.018-.015.01c-.009.005-.021.011-.03.018-.054.03-.012-.007.012-.004-.009 0-.03.01-.039.012-.063.024.045 0 .015 0h-.033c-.075.006.066.015.009.003-.165-.03-.357.048-.393.226-.039.159.045.36.222.393zm71.177 1.214c.315.21.81.087.984-.252a.671.671 0 00.036-.561.732.732 0 00-.168-.267.655.655 0 00-.273-.168c-.279-.087-.489.219-.555.453a.806.806 0 00.036.543c.153.369.561.546.942.456a.692.692 0 00.231-.1.384.384 0 00.159-.197c.003-.015.009-.027.012-.04a.802.802 0 00.021-.167.793.793 0 00-.427-.7.728.728 0 00-.275-.074c-.198-.021-.402.075-.543.204a.754.754 0 00-.249.54.533.533 0 00.015.159.416.416 0 00.201.228.896.896 0 00.837.042.708.708 0 00.372-.411c.126-.318.003-.741-.306-.9-.366-.192-.825.012-.96.393a.66.66 0 00-.015.306c.012.075.087.156.147.192.072.04.171.057.246.033a.338.338 0 00.195-.15c.009-.024.021-.048.03-.075a.332.332 0 000-.171c-.003-.003-.003-.006-.003-.009l.012.084a.22.22 0 010-.063c-.006.027-.009.057-.012.084a.272.272 0 01.018-.069c-.009.024-.021.048-.03.075a.247.247 0 01.042-.072.775.775 0 00-.048.063.362.362 0 01.066-.069c-.021.018-.042.036-.063.05a.433.433 0 01.096-.053.749.749 0 00-.078.033.51.51 0 01.096-.027c-.027.003-.057.006-.087.012a.284.284 0 01.099 0c-.027-.003-.057-.01-.087-.012a.29.29 0 01.075.02c-.024-.011-.051-.02-.078-.032.024.012.048.024.069.042l-.066-.054c.024.021.042.042.063.063-.018-.021-.036-.042-.051-.066a.601.601 0 01.048.084.949.949 0 00-.033-.075.378.378 0 01.033.114c-.003-.027-.006-.057-.012-.084a.51.51 0 010 .135c.003-.03.009-.057.012-.087a.4.4 0 01-.036.117.981.981 0 00.033-.075.476.476 0 01-.051.087l.051-.066c-.021.03-.048.05-.075.075.021-.018.042-.033.066-.051a.571.571 0 01-.099.057c.025-.01.05-.02.075-.033a.513.513 0 01-.132.039c.027-.003.057-.01.084-.012a.675.675 0 01-.153 0c.027.006.057.009.084.012a.62.62 0 01-.162-.045c.027.012.054.02.078.033a.5.5 0 01-.12-.072l.144.192v-.015l.009.087a.575.575 0 010-.102l-.009.084a.364.364 0 01.03-.108.613.613 0 00-.03.078.494.494 0 01.057-.102c-.018.024-.033.045-.051.066a.499.499 0 01.093-.09.879.879 0 00-.066.051.469.469 0 01.099-.06c-.024.012-.051.02-.075.033a.457.457 0 01.108-.03.694.694 0 01-.084.012.436.436 0 01.087 0 .694.694 0 01-.084-.012.584.584 0 01.102.027l-.075-.03a.365.365 0 01.09.054l-.066-.051c.032.024.06.052.084.084-.018-.021-.033-.045-.051-.066a.53.53 0 01.066.114.571.571 0 00-.033-.078.503.503 0 01.033.114c-.003-.03-.009-.057-.012-.084a.31.31 0 010 .105.868.868 0 00.012-.087.376.376 0 01-.018.081c.045-.063.096-.126.147-.19a.827.827 0 01-.087.049.537.537 0 01.078-.033.514.514 0 01-.129.036.736.736 0 01.084-.012.47.47 0 01-.135 0c.03.003.057.009.084.012a.629.629 0 01-.138-.036c.021.009.048.018.075.03a.557.557 0 01-.105-.06l.063.048a.627.627 0 01-.078-.075c.018.02.036.042.051.063a.449.449 0 01-.063-.105c.012.027.024.05.033.078a.589.589 0 01-.03-.117l.009.084a.602.602 0 010-.147c-.003.027-.006.057-.012.084.009-.042.021-.087.036-.13-.009.028-.021.052-.033.08a.442.442 0 01.06-.106l-.048.063c.021-.027.042-.048.066-.072-.105.03-.207.057-.312.084a.16.16 0 01.036.012c-.027-.012-.054-.021-.078-.033a.34.34 0 01.081.045l-.066-.048c.024.021.048.039.066.066-.015-.024-.033-.042-.051-.066.023.028.042.06.057.093-.012-.027-.021-.054-.033-.078a.503.503 0 01.033.114.638.638 0 01-.012-.087.48.48 0 010 .093c.003-.027.006-.054.012-.084a.471.471 0 01-.027.09c.012-.027.024-.05.03-.078a.247.247 0 01-.039.072c.018-.024.036-.045.048-.066a.258.258 0 01-.063.066c.024-.018.045-.036.063-.051a.371.371 0 01-.087.05c.027-.008.051-.02.075-.032a.333.333 0 01-.111.03.703.703 0 00.087-.012.27.27 0 01-.102 0c.028.006.056.01.084.012a.274.274 0 01-.087-.024c.021.012.048.021.075.033l-.063-.033c-.135-.093-.36-.03-.435.114a.328.328 0 00.114.438" fill="#D0D0D0"/><path d="M185.437 117.016c-.828.039-.798.906-.285 1.269.933.657 1.452-1.323.285-1.269zm-85.673 44.237c-1.466-2.034-1.428 1.86-.108.768.156-.126.288-.519.108-.768z" fill="#6A737D"/><path d="M246.427 117.119c-1.185-1.824-2.409-3.576-3.641-5.325-.436.441-.807 1.008-1.087 1.695l3.063 4.854a3.569 3.569 0 001.665-1.224" fill="#0E1117"/><path d="M244.113 110.914a3.7 3.7 0 00-1.326.879c1.233 1.749 2.454 3.501 3.639 5.324.282-.378.495-.828.603-1.346l-2.916-4.857z" fill="#6A737D"/><path d="M246.317 124.132c-.677-.96-1.931-1.407-2.798-.999a1.249 1.249 0 00-.46.36l-.164.198-.484.588-.194.237c-.36.441-.342 1.146.102 1.773.042.06.084.117.132.171.561.651 1.446.948 2.109.699l1.307-.498.108-.045c.076-.039.148-.078.211-.123.678-.483.75-1.485.131-2.361" fill="#376EE3"/><path d="M244.933 125.053c.564.8.438 1.728-.285 2.067-.723.342-1.767-.031-2.331-.832-.567-.798-.438-1.728.285-2.066.723-.342 1.767.029 2.331.831z" fill="#00CEFF"/><path d="M257.035 129.681l3.659-2.673 5.856 6.783-2.346 4.546-7.169-8.656z" fill="#000"/><path d="M258.274 125.716c1.215.924 1.047 4.02 1.047 4.02s.132 1.536 1.146 1.563c1.02.027 3.102-.411 3.153.849.054 1.257-1.452 2.511-.222 2.811 1.23.297 2.586.312 3.087.99" stroke="#376EE3" stroke-width=".576" stroke-miterlimit="10"/><path d="M264.713 111.858c-.384-1.334-2.391-1.578-3.459-.972-2.19 1.2-1.542 5.506-6.669 8.772l.573.897c5.265-3.348 5.025-7.884 6.612-8.739.399-.228 1.98-.486 1.98.814-.003 1.109-.645 2.813.027 4.088.249-.267.555-.462.879-.645-.426-1.116.438-2.964.057-4.215z" fill="#C24E00"/><path d="M264.672 116.118c-.006-.014-.009-.03-.015-.045-.324.183-.63.378-.879.645.093.178.21.342.342.489.186.195.399.357.618.481l.524-.928c-.278-.159-.479-.366-.59-.642" fill="#F9E1BA"/><path d="M257.312 109.028a4.06 4.06 0 01-.504-.393c-3.633 5.154 2.415 4.506-2.687 9.865l.458.44c5.436-5.721-.633-5.112 2.733-9.912z" fill="#009245"/><path d="M257.62 108.602l-.51-.384c-.102.135-.201.276-.303.417.165.15.333.282.504.393.102-.141.205-.285.309-.426" fill="#F9E1BA"/><path d="M285.942 92.96c-.079 0-.162.005-.241.014-.428.053-.641.222-.659.282.257.15.566.198.854.135a.965.965 0 00.655-.273.914.914 0 00-.609-.159zm-.285.962c-.514 0-1.011-.168-1.114-.54a.52.52 0 01-.012-.222.525.525 0 01.087-.204 1.44 1.44 0 011.015-.498c.618-.075 1.296.078 1.425.522a.536.536 0 01-.075.43 1.387 1.387 0 01-.46.35 1.41 1.41 0 01-.558.144 2.553 2.553 0 01-.308.018" fill="#0366D6"/><path d="M273.112 95.11c-2.192-2.488-.996-4.368-.086-5.272.2-.2.162-.572.062-1.271a9.449 9.449 0 010-3.312c.45-2.325 1.752-5.017 4.083-5.605 2.199-.551 3.897.375 5.694 1.357 1.683.923 3.423 1.872 5.736 1.674.993-.082 1.893-1 2.685-1.816.708-.72 1.317-1.344 1.962-1.388.582-.046 1.068.71 1.455 1.32l.069.104-.441.28-.065-.109c-.229-.356-.697-1.098-.979-1.08-.45.033-1.019.619-1.626 1.233-.861.88-1.833 1.87-3.018 1.968-2.466.205-4.277-.78-6.03-1.736-1.749-.96-3.312-1.813-5.313-1.309-2.094.528-3.284 3.034-3.696 5.2a9.085 9.085 0 000 3.137c.108.768.186 1.324-.213 1.717-.954.941-1.704 2.498.111 4.56l-.39.347v0z" fill="#0366D6" stroke="#0366D6" stroke-width=".274" stroke-miterlimit="10"/><path d="M277 95.797c3.648.658 7.77.288 10.62-.864 1.977-.797 3.15-1.898 3.297-3.096.027-.216.039-.432.036-.648-.022-.264.028-.529.144-.767 3.732-7.317 4.071-10.785 1.515-15.453-2.676-4.887-9.411-6.97-13.116-6.843a18.74 18.74 0 00-8.064 2.286c-3.669 2.075-5.751 5.207-6.189 9.311-.522 4.93 1.101 8.097 2.355 9.928.747 1.137 2.592 3.084 3.744 3.81l-.321.405c-.063-.034-7.332-4.425-6.294-14.197.456-4.28 2.625-7.544 6.45-9.71a19.257 19.257 0 018.316-2.353c3.834-.14 10.809 2.035 13.587 7.113 2.628 4.795 2.274 8.52-1.506 15.94a.995.995 0 00-.087.527c.003.237-.009.48-.039.715-.174 1.398-1.458 2.646-3.618 3.516a19.479 19.479 0 01-7.095 1.233c-.492 0-.993-.021-1.488-.051a20.117 20.117 0 01-2.325-.282" fill="#0366D6"/><path d="M277 95.797c3.648.658 7.77.288 10.62-.864 1.977-.797 3.15-1.898 3.297-3.096.027-.216.039-.432.036-.648-.022-.264.028-.529.144-.767 3.732-7.317 4.071-10.785 1.515-15.453-2.676-4.887-9.411-6.97-13.116-6.843a18.74 18.74 0 00-8.064 2.286c-3.669 2.075-5.751 5.207-6.189 9.311-.522 4.93 1.101 8.097 2.355 9.928.747 1.137 2.592 3.084 3.744 3.81l-.321.405c-.063-.034-7.332-4.425-6.294-14.197.456-4.28 2.625-7.544 6.45-9.71a19.257 19.257 0 018.316-2.353c3.834-.14 10.809 2.035 13.587 7.113 2.628 4.795 2.274 8.52-1.506 15.94a.995.995 0 00-.087.527c.003.237-.009.48-.039.715-.174 1.398-1.458 2.646-3.618 3.516a19.479 19.479 0 01-7.095 1.233c-.492 0-.993-.021-1.488-.051a20.117 20.117 0 01-2.325-.282" stroke="#0366D6" stroke-width=".454" stroke-miterlimit="10"/><path d="M274.714 95.773c-1.448-.468-2.705-1.11-3.693-1.905l.322-.408c1.083.876 2.466 1.518 3.996 1.953l-.625.36zm-4.13-13.242c-1.383-2.01-1.947-6.228-.588-9.294.308-.696.966-1.134 1.902-1.266 2.157-.31 5.73 1.092 7.185 2.823l-.396.339c-1.338-1.596-4.726-2.928-6.717-2.65-.759.109-1.267.433-1.501.964-1.289 2.907-.759 6.894.544 8.79l-.429.294v0z" fill="#0366D6" stroke="#0366D6" stroke-width=".274" stroke-miterlimit="10"/><path d="M271.621 80.885h-.528c0-1.782.753-4.691 2.157-6.581.594-.81 3.177.306 4.257.819l-.225.468c-1.71-.816-3.386-1.273-3.612-.981-1.347 1.803-2.049 4.578-2.049 6.275v0z" fill="#0366D6" stroke="#0366D6" stroke-width=".274" stroke-miterlimit="10"/><path d="M292.988 75.18a.276.276 0 01-.16-.048.281.281 0 01-.099-.17.27.27 0 01.048-.196c.261-.345.513-.672.751-.978.8-1.028 1.433-1.848 1.343-2.388a.809.809 0 00-.165-.33.875.875 0 00-.282-.236c-1.814-1.192-5.964-.306-6-.306a.319.319 0 01-.105 0 .265.265 0 01-.093-.037.216.216 0 01-.072-.072.214.214 0 01-.042-.093.256.256 0 01.036-.194.24.24 0 01.162-.114c.18-.04 4.404-.925 6.399.383.174.096.324.228.439.39.116.16.198.342.236.534.126.774-.534 1.62-1.449 2.796-.234.309-.486.615-.744.966a.208.208 0 01-.09.072.287.287 0 01-.113.021" fill="#0366D6"/><path clip-rule="evenodd" d="M292.988 75.18a.276.276 0 01-.16-.048.281.281 0 01-.099-.17.27.27 0 01.048-.196c.261-.345.513-.672.751-.978.8-1.028 1.433-1.848 1.343-2.388a.809.809 0 00-.165-.33.875.875 0 00-.282-.236c-1.814-1.192-5.964-.306-6-.306a.319.319 0 01-.105 0 .265.265 0 01-.093-.037.216.216 0 01-.072-.072.214.214 0 01-.042-.093.256.256 0 01.036-.194.24.24 0 01.162-.114c.18-.04 4.404-.925 6.399.383.174.096.324.228.439.39.116.16.198.342.236.534.126.774-.534 1.62-1.449 2.796-.234.309-.486.615-.744.966a.208.208 0 01-.09.072.287.287 0 01-.113.021v0z" stroke="#0366D6" stroke-width=".454" stroke-miterlimit="10"/><path d="M264.569 89.49h-.006c-.018.003-.036.01-.054.012-.138.036-.276.072-.414.114l-.123.04c-.15.047-.298.101-.444.161a.264.264 0 00-.135.115.277.277 0 00-.027.176.253.253 0 00.264.204.282.282 0 00.099-.012c.272-.113.552-.206.837-.278 2.523-.619 5.637.167 5.676.176l.129-.5c-.144-.04-3.186-.81-5.802-.208" fill="#0366D6"/><path clip-rule="evenodd" d="M264.569 89.49h-.006c-.018.003-.036.01-.054.012-.138.036-.276.072-.414.114l-.123.04c-.15.047-.298.101-.444.161a.264.264 0 00-.135.115.277.277 0 00-.027.176.253.253 0 00.264.204.282.282 0 00.099-.012c.272-.113.552-.206.837-.278 2.523-.619 5.637.167 5.676.176l.129-.5c-.144-.04-3.186-.81-5.802-.208v0z" stroke="#0366D6" stroke-width=".274" stroke-miterlimit="10"/><path d="M264.183 86.944h-.006c-.018 0-.036.006-.054.006-.143.018-.285.04-.426.066-.042.006-.081.015-.126.024a6.202 6.202 0 00-.456.11.239.239 0 00-.147.1.248.248 0 00.027.33c.042.043.099.07.159.075a.254.254 0 00.099 0 5.83 5.83 0 01.867-.18c2.577-.33 5.583.807 5.619.822l.183-.486c-.138-.054-3.069-1.167-5.739-.867" fill="#0366D6"/><path clip-rule="evenodd" d="M264.183 86.944h-.006c-.018 0-.036.006-.054.006-.143.018-.285.04-.426.066-.042.006-.081.015-.126.024a6.202 6.202 0 00-.456.11.239.239 0 00-.147.1.248.248 0 00.027.33c.042.043.099.07.159.075a.254.254 0 00.099 0 5.83 5.83 0 01.867-.18c2.577-.33 5.583.807 5.619.822l.183-.486c-.138-.054-3.069-1.167-5.739-.867v0z" stroke="#0366D6" stroke-width=".274" stroke-miterlimit="10"/><path d="M291.502 89.615c.654-.087 1.341-.12 1.998-.042h.006c.015 0 .033.006.048.006a5.101 5.101 0 01.885.195c.052.015.096.05.123.096a.267.267 0 01.024.174.29.29 0 01-.084.162.233.233 0 01-.153.075.223.223 0 01-.087 0 4.373 4.373 0 00-.759-.174c-.741-.102-1.542-.048-2.283.072l.282-.564zm.457-1.065a7.6 7.6 0 011.185-.117h.051c.129 0 .258.003.384.012.039.003.075.006.114.012.141.012.279.03.414.054a.201.201 0 01.135.08.267.267 0 01.042.166.3.3 0 01-.069.168.233.233 0 01-.147.093.173.173 0 01-.087.012 4.897 4.897 0 00-.783-.075 7.17 7.17 0 00-1.485.165" fill="#0366D6"/><path d="M291.959 88.55a7.6 7.6 0 011.185-.117h.051c.129 0 .258.003.384.012.039.003.075.006.114.012.141.012.279.03.414.054a.201.201 0 01.135.08.267.267 0 01.042.166.3.3 0 01-.069.168.233.233 0 01-.147.093.173.173 0 01-.087.012 4.897 4.897 0 00-.783-.075 7.17 7.17 0 00-1.485.165m-.211.495c.654-.087 1.341-.12 1.998-.042h.006c.015 0 .033.006.048.006a5.101 5.101 0 01.885.195c.052.015.096.05.123.096a.267.267 0 01.024.174.29.29 0 01-.084.162.233.233 0 01-.153.075.223.223 0 01-.087 0 4.373 4.373 0 00-.759-.174c-.741-.102-1.542-.048-2.283.072l.282-.564z" stroke="#0366D6" stroke-width=".274" stroke-miterlimit="10"/><path d="M277.153 100.979c-2.059 5.052-4.777 9.819-7.873 14.289l-.723-.498c3.072-4.434 5.754-9.135 7.783-14.124l.813.333z" fill="#0366D6"/><path d="M275.06 98.92c-2.502 3.49-6.729 8.971-9.825 11.962" stroke="#0366D6" stroke-width=".878" stroke-miterlimit="10"/><path d="M279.894 96.746c-.645 3.749-1.938 7.247-3.291 10.725-1.433 3.444-2.901 6.884-5.166 9.972l-.689-.547c2.139-2.906 3.636-6.359 5.042-9.753 1.335-3.423 2.626-6.944 3.238-10.517l.866.12z" fill="#0366D6"/><path d="M254.436 104.3c2.811-6.85 10.998-8.871 8.691 2.238" stroke="#0366D6" stroke-width=".878" stroke-miterlimit="10"/><path d="M344.887 111.64c-.366-.033-.867-.02-1.062.048-.126.12-.189.18-.024.594.285.696.798 1.413 1.263 2.1.966 1.383 1.995 2.736 3.027 4.083l6.285 8.037 2.49 3.183c1.944 2.586 3.621 5.328 5.445 7.945a.44.44 0 01-.72.504l-.003-.003c-1.824-2.659-3.486-5.397-5.382-7.953l-2.476-3.163h-.002l-6.288-8.049a109.823 109.823 0 01-3.054-4.116c-.48-.72-.984-1.392-1.353-2.271-.085-.221-.177-.476-.144-.818.069-.415.255-.604.594-.823.617-.2.993-.132 1.467-.117a.408.408 0 01.4.422.406.406 0 01-.422.4c-.008 0-.014 0-.023-.003h-.018z" fill="#0366D6"/><path d="M344.702 110.884c1.812-.795 3.726-.671 5.529-.324 1.803.402 3.501 1.215 4.977 2.307 2.973 2.211 4.908 5.49 6.147 8.874l5.196 15.549a.432.432 0 01-.129.471.42.42 0 01-.15.084.424.424 0 01-.334-.023.44.44 0 01-.218-.253l-.003-.009-5.13-15.549c-1.2-3.282-3.063-6.408-5.862-8.493-1.395-1.026-2.985-1.785-4.671-2.166-1.662-.333-3.504-.405-4.992.261l-.033.015a.393.393 0 01-.31.008.402.402 0 01-.224-.215.391.391 0 01-.011-.311.41.41 0 01.215-.226h.003z" fill="#0366D6"/><path d="M263.23 100.798c6.432.679 15.177-9.854 13.585-4.058-1.777 2.562-7.968 8.445-13.518 9.633m104.67 31.038c-2.43-.063-4.96.207-7.44.747-.097.021-.192.045-.285.066m-8.799 4.692c-2.316 2.547-3.152 5.664-2.886 8.631.342 3.789 2.169 8.883 1.498 11.106-1.26 2.7.152 4.935 7.4 6.936 7.252 2.001 18.648-1.116 21.54-5.04 3.342-4.53 5.364-10.851 4.152-16.41-.714-3.276-2.334-5.706-4.536-7.416m-32.442 26.799c2.001-1.347 4.546-2.901 7.11-2.147m-5.639 5.359c2.065-1.417 3.849-3.186 6.423-3.754m28.268-8.795c1.113-.249 2.253-.381 3.327-.084m-4.745 3.375c1.659-.364 3.42-.568 4.911.252" stroke="#0366D6" stroke-width=".878" stroke-miterlimit="10"/><path d="M367.967 137.411s1.79-2.901 6.024-3.81c.194-.042.435.036.608.198.799.744 3.022 3.096 4.012 6.924m-27.167 2.193c-.37-2.1-.619-5.685.72-6.327 1.944-.933 5.685.18 9.81 2.589" stroke="#0366D6" stroke-width=".878" stroke-miterlimit="10" stroke-linecap="square"/><path d="M336.752 183.888c-.808-.222-1.939-.31-2.314.168-.378.422-.051 1.592.102 2.474.405 1.836 1.191 3.667 2.61 4.804l-.03-.018c3.034 1.946 6.693 2.802 10.311 3.195 3.633.384 7.323.201 10.971-.246 2.112-.216 3.831-1.687 4.767-3.618.987-1.908 1.491-4.077 1.902-6.234.78-4.347 1.143-8.793 1.779-13.212l.87.126c-.636 4.389-.996 8.829-1.785 13.245-.423 2.199-.927 4.422-1.992 6.483-.969 2.07-3.027 3.855-5.433 4.077v.002c-3.693.45-7.446.64-11.175.247-3.699-.405-7.464-1.266-10.698-3.333l-.015-.01-.014-.011c-1.669-1.353-2.484-3.363-2.923-5.307a13.897 13.897 0 01-.258-1.488c-.057-.471-.129-1.182.337-1.734.461-.552 1.127-.651 1.656-.666a5.626 5.626 0 011.584.216l-.252.84z" fill="#0366D6"/><path d="M366.306 170.326c-1.221 1.128-1.971 2.754-2.613 4.389l-1.836 5.028c-1.236 3.372-2.772 6.663-4.74 9.696l-.735-.477c1.926-2.967 3.429-6.189 4.65-9.528l1.845-5.043c.66-1.662 1.422-3.396 2.85-4.722l.579.657z" fill="#0366D6"/><path d="M335.002 185.391c.288-.972.87-2.101 1.953-2.598 1.05-.493 2.137-.493 3.159-.429 2.07.156 4.02.723 5.944 1.322 3.827 1.222 7.506 2.862 11.258 4.063l-.252.837c-3.855-1.233-7.494-2.859-11.276-4.065-1.885-.588-3.808-1.141-5.728-1.281-.95-.069-1.947-.036-2.718.338-.777.358-1.224 1.165-1.503 2.074l-.837-.261zm30.334 1.605c.033 2.553-.072 5.127.099 7.65.192 2.514.585 5.061 1.65 7.296.99 2.259 3.135 3.939 5.604 3.72 2.433-.15 4.725-1.419 6.762-2.859l.513.711c-2.112 1.485-4.491 2.844-7.233 3.024-1.35.069-2.787-.261-3.912-1.08-1.134-.795-1.95-1.935-2.523-3.132-1.146-2.415-1.536-5.04-1.734-7.62-.177-2.595-.069-5.151-.105-7.731l.879.021z" fill="#0366D6"/><path d="M369.848 169.497c4.919 2.601 6.107 21.816 8.199 25.416" stroke="#0366D6" stroke-width=".878" stroke-miterlimit="10"/><path d="M382.539 193.037c1.506.345 2.127 1.926 2.259 3.093.18 1.251.093 2.472-.039 3.675-.285 2.403-.861 4.731-1.452 7.041-.291 1.146-.627 2.31-.846 3.426-.018.129-.048.285-.045.369 0 .099-.006-.009-.018.012l.096.162c.135.207.288.396.483.525.381.264.882.351 1.404.285 2.121-.354 4.137-1.959 5.46-3.72h.003c1.44-2.298 2.847-4.902 2.604-7.575-.123-1.287-.678-2.658-1.446-3.606-.9-.855-2.268-1.356-3.564-1.767a26.042 26.042 0 00-3.729-.852c-1.221-.189-2.445-.003-3.6.453-2.313.942-4.311 2.655-6.297 4.293l-.567-.669c2.007-1.65 4.017-3.402 6.543-4.44 1.257-.504 2.688-.72 4.044-.504 1.317.201 2.598.489 3.867.879 1.362.453 2.76.903 3.93 1.998 1.008 1.242 1.512 2.619 1.692 4.131.135 1.503-.198 2.988-.729 4.338-.555 1.356-1.239 2.592-2.031 3.822-1.521 1.962-3.483 3.618-6.084 4.092-1.245.204-3.15-.576-2.877-2.376.237-1.218.567-2.34.861-3.498.585-2.292 1.152-4.599 1.425-6.921.132-1.158.21-2.334.045-3.441-.144-1.101-.624-2.163-1.602-2.373l.21-.852z" fill="#0366D6"/><path d="M370.372 170.757c.975 4.59 1.026 9.203 1.35 13.785.147 2.286.312 4.575.609 6.834.315 2.238.714 4.536 1.734 6.453l-.756.444c-1.143-2.16-1.515-4.494-1.848-6.78-.3-2.299-.465-4.599-.615-6.897-.321-4.578-.384-9.216-1.326-13.639l.852-.2zm10.652 25.442c-.618 2.282-1.091 4.646-1.101 6.977.01 1.17.129 2.337.532 3.387.383 1.066 1.112 1.932 2.009 2.67l-.564.672c-.951-.777-1.827-1.812-2.265-3.027-.458-1.203-.579-2.469-.591-3.695.015-2.482.504-4.873 1.137-7.222l.843.237v.001zm11.839 1.491c.933.911 2.157 1.685 3.216 2.661.531.489 1.05 1.026 1.446 1.695.421.623.561 1.587.489 2.253-.137 2.862-.644 5.654-1.629 8.37-.441 1.08-.905 2.154-1.658 3.134-.381.468-.859.985-1.633 1.14-.815.126-1.491-.371-1.88-.836-.825-.975-1.252-2.08-1.656-3.174a29.757 29.757 0 01-.931-3.355l.855-.188c.246 1.103.534 2.199.907 3.251.375 1.041.809 2.106 1.478 2.88.679.892 1.503.648 2.173-.263.644-.838 1.112-1.879 1.53-2.911.929-2.553 1.443-5.346 1.569-8.079.195-1.332-.649-2.345-1.651-3.269-1.002-.93-2.181-1.653-3.258-2.704l.633-.605z" fill="#0366D6"/><path d="M369.314 169.193c1.533-.064 2.562.788 3.558 1.476.981.744 1.875 1.569 2.736 2.418 1.722 1.7 3.318 3.504 4.902 5.304l2.391 2.67c.402.422.828.869 1.236 1.182.363.263.66.191 1.062-.172.735-.738 1.227-1.866 1.659-2.939.411-1.029.495-2.227.603-3.402v-.003c.249-3.262.291-6.603 1.047-9.892.39-1.628.972-3.284 2.091-4.659 1.113-1.401 2.952-2.145 4.692-2.124h.075l.03.013c.48.17.615.408.819.638.177.234.315.483.432.735.231.511.36 1.044.444 1.576l-.867.123c-.075-.465-.186-.925-.375-1.336a2.822 2.822 0 00-.333-.566c-.105-.16-.327-.319-.327-.319l.102.013c-1.551 0-3.045.602-4.023 1.812-.978 1.194-1.536 2.736-1.902 4.295-.735 3.157-.783 6.459-1.029 9.759-.114 1.2-.189 2.44-.663 3.654-.465 1.126-.918 2.283-1.878 3.262-.399.528-1.56.81-2.169.245-.543-.417-.939-.851-1.365-1.296l-2.406-2.69c-1.587-1.797-3.174-3.589-4.863-5.259-.846-.832-1.722-1.635-2.649-2.34-.906-.676-1.989-1.375-2.913-1.308l-.117-.87z" fill="#0366D6"/><path d="M393.856 160.931c1.17.234 2.352.681 3.297 1.515.957.819 1.536 2.016 1.755 3.207.426 2.424-.171 4.782-.918 6.972-1.596 4.386-4.08 8.355-6.975 11.964-1.473 1.782-3.048 3.507-4.971 4.902-.948.609-2.082 1.458-3.537 1.074-1.284-.432-2.106-1.356-2.883-2.232-2.934-3.684-4.842-7.929-6.486-12.243l.822-.3c1.602 4.23 3.537 8.469 6.333 11.976.714.828 1.539 1.665 2.463 1.959.849.282 1.902-.348 2.787-.954 1.797-1.302 3.354-2.994 4.791-4.74 2.835-3.531 5.286-7.452 6.828-11.697.729-2.109 1.269-4.38.882-6.513-.309-2.193-2.181-3.69-4.359-4.029l.171-.861z" fill="#0366D6"/><path d="M292.841 104.695c1.746-.18 3.834-.504 5.883-.504 5.991 0 8.784 4.434 8.784 5.031 0 1.416-.78 1.638-21.285 1.638-5.856 0-6.699.15-7.191-2.973-.393-2.535.318-4.509-.462-7.254m.815-4.242c1.281 1.752 2.793 3.384 2.823 9.336" stroke="#0366D6" stroke-width=".878" stroke-miterlimit="10"/><path d="M306.786 107.966c-.669-3.747-3.768-6.437-6.576-6.437-5.139 0-12.486 4.05-17.016 4.05-.678 0-1.293-.09-1.83-.301" stroke="#0366D6" stroke-width=".878" stroke-miterlimit="10"/><path d="M240.243 88.33c.807-.672 1.665-.945 2.541-.945 2.643 0 5.415 2.505 7.197 4.089 4.746 4.227 6.831 5.28 10.098 5.28 2.097 0 11.199-1.665 14.958-1.172m26.956 11.955c0-.753-1.39-1.365-3.101-1.365-1.712 0-3.103.612-3.103 1.365s1.391 1.365 3.103 1.365c1.711 0 3.101-.612 3.101-1.365zm-10.353.633c0-.84-1.443-1.521-3.221-1.521-1.777 0-3.22.681-3.22 1.521 0 .839 1.443 1.521 3.22 1.521 1.778 0 3.221-.682 3.221-1.521zm-28.342-1.797c.18 1.533-4.485.464-9.564.116-1.464-3.41 2.154-2.226 5.775-.555l3.789.439z" stroke="#0366D6" stroke-width=".878" stroke-miterlimit="10"/><path d="M241.159 87.741a3.91 3.91 0 00-1.548-.234c-1.534.093-.27 3.246 1.803 5.143 2.072 1.892 9.738 6.218 12.893 7.121.63.18 1.864.177 3.451.06m113.83 88.852c.924.226 1.869 1.599 2.256 3.399.432 2.005.009 3.814-.942 4.179m-2.158-17.143c.075-.018.157-.027.234-.027 1.14 0 2.065 1.749 2.065 3.906 0 1.978-.777 3.613-1.785 3.87m-108.9-87.539c3.186-.093 5.693-.468 8.63-1.215l-8.63 1.215zm128.25 102.495c0-2.316-1.165-4.197-2.6-4.197s-2.599 1.881-2.599 4.197c0 2.317 1.165 4.197 2.599 4.197 1.435 0 2.6-1.88 2.6-4.197z" stroke="#0366D6" stroke-width=".878" stroke-miterlimit="10"/><path d="M390.08 213.826c-.83-.236-1.566-.75-2.111-1.374a7.314 7.314 0 01-.967-1.41l.769-.414c.248.447.521.876.851 1.242.466.528 1.044.924 1.698 1.113l-.24.843z" fill="#0366D6"/><path d="M393.212 201.111c.078-.015.162-.021.24-.021 1.269 0 2.298 1.77 2.298 3.954 0 2.181-1.029 3.951-2.298 3.951-1.158 0-2.115-1.473-2.274-3.393" stroke="#0366D6" stroke-width=".878" stroke-miterlimit="10"/><path clip-rule="evenodd" d="M302.174 83.435c2.219-10.896-6.156-21.813-18.689-24.365-12.533-2.551-24.509 4.223-26.727 15.119-2.219 10.896 6.156 21.813 18.689 24.365 12.533 2.551 24.509-4.223 26.727-15.119zm86.933 62.934c-2.922-12.226-16.732-19.419-30.82-16.052-14.088 3.367-23.153 16.027-20.231 28.254 2.923 12.227 16.733 19.42 30.821 16.053 14.088-3.367 23.153-16.027 20.23-28.255z" stroke="#0366D6" stroke-width=".878" stroke-miterlimit="10" stroke-linecap="round"/></svg>
