<svg xmlns="http://www.w3.org/2000/svg" width="110.167" height="37.219" viewBox="0 0 110.167 37.219"><g transform="translate(0 0)"><path d="M32.685,66.788V57.909H5.6v8.879H0V44.215H5.6v8.529H32.7V44.215h5.6V66.788Zm27.288-8.529c0-5.181-3.815-8.979-9.2-8.979a8.981,8.981,0,1,0,0,17.959c5.4,0,9.2-3.8,9.2-8.979m-9.179,4.148a3.847,3.847,0,0,1-3.932-4.148,3.937,3.937,0,1,1,7.863,0,3.847,3.847,0,0,1-3.932,4.148m11.878-3.965V74.068h5.181V65.022h.067a5.8,5.8,0,0,0,4.864,2.216c3.615,0,8.18-2.665,8.18-8.979,0-5.181-3.815-8.963-9.2-8.963s-9.113,3.548-9.113,9.146Zm5.164-.167a3.937,3.937,0,1,1,7.863,0,3.937,3.937,0,1,1-7.863,0M84.2,66.788h5.181V46.631H84.2Zm25.972,0V57.959c0-5.764-3.382-8.663-8.43-8.663s-8.43,2.932-8.43,8.663v8.829h5.181V57.959c0-2.7,1.316-3.832,3.249-3.832s3.249,1.133,3.249,3.832v8.829Z" transform="translate(0 -36.849)" fill="#4A0099"></path><path d="M500.857,2.628a3.315,3.315,0,1,1,2.555,3.931,3.315,3.315,0,0,1-2.555-3.931" transform="translate(-417.358 0)" fill="#fa0"></path></g></svg>