<svg xmlns="http://www.w3.org/2000/svg" data-name="Layer 1" width="1104" height="580.70112" viewBox="0 0 1104 580.70112" xmlns:xlink="http://www.w3.org/1999/xlink"><title>mobile_images</title><rect y="9.62983" width="1104" height="560" fill="#00bfa6"/><path d="M546.975,292.91v65.68a2.29613,2.29613,0,0,1-2.29,2.29h-1.62989V703.03a35.702,35.702,0,0,1-35.70007,35.7H293.56509a35.69346,35.69346,0,0,1-35.69006-35.7V372.88h-1.18a1.6176,1.6176,0,0,1-1.62-1.61V333.89a1.61971,1.61971,0,0,1,1.62-1.62h1.18V318.19H256.685a1.69647,1.69647,0,0,1-1.68994-1.7V279.62a1.69432,1.69432,0,0,1,1.68994-1.69H257.875V258.71h-1.21008a1.498,1.498,0,0,1-1.5-1.5V237.09a1.5066,1.5066,0,0,1,1.5-1.51H257.875V194.84a35.69136,35.69136,0,0,1,35.69006-35.69H507.355a35.69991,35.69991,0,0,1,35.70007,35.69v95.78H544.685A2.29608,2.29608,0,0,1,546.975,292.91Z" transform="translate(-48 -159.14996)" fill="#3f3d56"/><polygon points="948.7 9.63 476.02 334.13 443.76 287.14 848 9.63 948.7 9.63" opacity="0.1"/><polygon points="1104 9.63 1104 56.62 439.02 513.13 406.76 466.14 1071.75 9.63 1104 9.63" opacity="0.1"/><polygon points="1104 147.95 1104 217.08 590.46 569.63 489.75 569.63 1104 147.95" opacity="0.1"/><rect x="30.17236" y="578.66157" width="1039.82764" height="2" fill="#3f3d56"/><rect x="825.40456" y="555.5884" width="52" height="52" transform="translate(445.81522 -544.65238) rotate(35.37103)" fill="#f0f0f0"/><path d="M857.17236,628.772a12,12,0,1,1,12-12A12.01375,12.01375,0,0,1,857.17236,628.772Zm0-22a10,10,0,1,0,10,10A10.01114,10.01114,0,0,0,857.17236,606.772Z" transform="translate(-48 -159.14996)" fill="#3f3d56"/><path d="M618.17236,259.772a12,12,0,1,1,12-12A12.01375,12.01375,0,0,1,618.17236,259.772Zm0-22a10,10,0,1,0,10,10A10.01114,10.01114,0,0,0,618.17236,237.772Z" transform="translate(-48 -159.14996)" fill="#f0f0f0"/><rect x="137.14746" y="506.09467" width="2" height="74.41113" fill="#3f3d56"/><circle cx="138.14769" cy="506.0943" r="10.52282" fill="#3f3d56"/><path d="M186.14769,711.10553s-1.50326-32.33193-32.32009-28.57378" transform="translate(-48 -159.14996)" fill="#3f3d56"/><rect x="325.47864" y="18.3068" width="39.82343" height="8.08642" rx="2.54189" fill="#e6e8ec"/><circle cx="375.91006" cy="22.35" r="4.58665" fill="#e6e8ec"/><path d="M525.96,201.89979v504.09a22.65047,22.65047,0,0,1-22.65,22.64H298.66a22.61062,22.61062,0,0,1-22.65-22.64v-504.09a22.64906,22.64906,0,0,1,22.65-22.65h30.63v3.93a18.65016,18.65016,0,0,0,18.65,18.65H452.02a18.65011,18.65011,0,0,0,18.65-18.65v-3.93h32.64A22.64266,22.64266,0,0,1,525.96,201.89979Z" transform="translate(-48 -159.14996)" fill="#00bfa6"/><rect x="238" y="168.62983" width="232" height="113" fill="#3f3d56"/><rect x="238" y="356.62983" width="232" height="113" fill="#3f3d56"/><circle cx="446" cy="81.62983" r="20" fill="#fff"/><polygon points="455 80.987 446.643 80.987 446.643 72.63 445.357 72.63 445.357 80.987 437 80.987 437 82.273 445.357 82.273 445.357 90.63 446.643 90.63 446.643 82.273 455 82.273 455 80.987" fill="#3f3d56"/><path d="M379.40863,405.37072c6.07317,22.45,26.87512,36.35394,26.87512,36.35394s10.95541-22.49485,4.88225-44.94491-26.87512-36.35394-26.87512-36.35394S373.33547,382.92066,379.40863,405.37072Z" transform="translate(-48 -159.14996)" fill="#fff"/><path d="M388.33272,400.546c16.66484,16.22255,18.70033,41.1604,18.70033,41.1604s-24.98356-1.36412-41.64841-17.58667-18.70033-41.1604-18.70033-41.1604S371.66787,384.3234,388.33272,400.546Z" transform="translate(-48 -159.14996)" fill="#00bfa6"/><path d="M379.40863,593.37072c6.07317,22.45005,26.87512,36.35394,26.87512,36.35394s10.95541-22.49485,4.88225-44.94491-26.87512-36.35394-26.87512-36.35394S373.33547,570.92066,379.40863,593.37072Z" transform="translate(-48 -159.14996)" fill="#fff"/><path d="M388.33272,588.546c16.66484,16.22255,18.70033,41.1604,18.70033,41.1604s-24.98356-1.36412-41.64841-17.58667-18.70033-41.1604-18.70033-41.1604S371.66787,572.3234,388.33272,588.546Z" transform="translate(-48 -159.14996)" fill="#00bfa6"/><path d="M434.65747,593.37072c-6.07316,22.45005-26.87511,36.35394-26.87511,36.35394s-10.95541-22.49485-4.88225-44.94491,26.87512-36.35394,26.87512-36.35394S440.73064,570.92066,434.65747,593.37072Z" transform="translate(-48 -159.14996)" fill="#fff"/><path d="M425.73339,588.546c-16.66485,16.22255-18.70034,41.1604-18.70034,41.1604s24.98357-1.36412,41.64841-17.58667,18.70034-41.1604,18.70034-41.1604S442.39824,572.3234,425.73339,588.546Z" transform="translate(-48 -159.14996)" fill="#00bfa6"/><path d="M1024,280.06184h-19.74115V260.32069H1024Zm-18.2226-1.51855h16.70405v-16.704H1005.7774Z" transform="translate(-48 -159.14996)" fill="#3f3d56"/><path d="M1035.64387,727.14192l-13.4651-14.43621,14.43622-13.46509,13.46509,14.43621ZM1024.325,712.78041l11.39354,12.21526,12.21525-11.39354-11.39354-12.21526Z" transform="translate(-48 -159.14996)" fill="#f0f0f0"/><circle cx="137.3101" cy="101.30692" r="10.07861" fill="#f0f0f0"/><path d="M185.3101,289.57287a29.116,29.116,0,1,1,29.116-29.116A29.14864,29.14864,0,0,1,185.3101,289.57287Zm0-55.99228a26.8763,26.8763,0,1,0,26.87629,26.87629A26.90708,26.90708,0,0,0,185.3101,233.58059Z" transform="translate(-48 -159.14996)" fill="#2f2e41"/><rect x="646" y="214.62983" width="328" height="27" fill="#f0f0f0"/><rect x="687.5" y="277.62983" width="245" height="10.45714" fill="#f0f0f0"/><rect x="687.5" y="294.47745" width="245" height="10.45714" fill="#f0f0f0"/><rect x="687.5" y="311.32507" width="245" height="10.45714" fill="#f0f0f0"/><rect x="687.5" y="328.17268" width="245" height="10.45714" fill="#f0f0f0"/></svg>